# xmcd
#
# Track frame offsets: 
#        150
#        14925
#        38355
#        67868
#        86673
#
# Disc length: 1466 seconds
#
# Revision: 0
# Processed by: cddbd v1.5PL3 Copyright (c) Steve Scherf et al.
# Submitted via: ExactAudioCopy v0.90b4
#
DISCID=3505b805
DTITLE=2nd Gen - And - Or
DYEAR=2000
DGENRE=Techno
TTITLE0=And - Or
TTITLE1=And - Or (Techno Animal Vocal Mix featuring Dalek)
TTITLE2=And - Or (Si Begg's 'Buckfunk 3000' Remix)
TTITLE3=And - Or (Cold Kid Remix)
TTITLE4=And - Or (Techno Animal Instrumental Mix)
EXTD=
EXTT0=
EXTT1=
EXTT2=
EXTT3=
EXTT4=
PLAYORDER=
